<svg xmlns="http://www.w3.org/2000/svg" xmlns:xlink="http://www.w3.org/1999/xlink" width="2532.27" height="2724.565" viewBox="0 0 2532.27 2724.565">
  <defs>
    <linearGradient id="linear-gradient" x1="0.5" x2="0.5" y2="1" gradientUnits="objectBoundingBox">
      <stop offset="0" stop-color="#31b8b1"/>
      <stop offset="1" stop-color="#5ad3cc"/>
    </linearGradient>
  </defs>
  <path id="Path_33" data-name="Path 33" d="M1092.183,974.382c118.28,91.258,279.46,124.22,424.074,86.724S1785.728,916.49,1844.77,779.254c19.088-44.371,32-92.215,60.475-131.233,70.407-96.49,207.637-107.9,327.078-109s255.763-8.271,331.065-100.991c76.59-94.312,53.819-233.248,93.091-348.221C2719.7-95.279,2923.768-182.418,3086.1-291.506c44.958-30.208,89.4-65.274,113.039-114.011s20.379-114.315-20.743-149.569c-35.089-30.085-85.881-30.744-132.094-29.851q-934.415,18.089-1868.832,36.175c-30.639.593-63.435,1.881-88.189,19.945-37.4,27.293-41.6,80.519-42.389,126.81q-9.189,538.025-18.377,1076.046c-2.031,118.816-4.041,238.071,10.022,356.071" transform="translate(418.57 -596.907) rotate(60)" fill="url(#linear-gradient)"/>
</svg>
