<svg xmlns="http://www.w3.org/2000/svg" width="219.469" height="219.357" viewBox="0 0 219.469 219.357">
  <g id="Group_17" data-name="Group 17" transform="translate(-457.303 -1025.061)">
    <path id="Path_38" data-name="Path 38" d="M675.777,1120.788c-7.35-53.15-49.85-92.21-103.72-95.33a32.276,32.276,0,0,0-10.1,0c-3.31.34-6.62.6-9.91,1.02-56.24,7.22-98.27,58.22-94.51,114.66,3.12,46.93,33.8,85.58,78.4,98.94,5.64,1.69,11.63,1.93,17.07,4.34h26c1.27-2,3.32-.86,4.96-1.11C642.1,1234.588,683.827,1178.938,675.777,1120.788ZM566.6,1234.428c-54.79-.42-99.19-45.24-98.87-99.82.33-55.17,45.09-99.55,99.97-99.09s99.39,45.23,99.12,99.7C666.537,1190,621.227,1234.848,566.6,1234.428Z"/>
    <g id="Group_16" data-name="Group 16">
      <path id="Path_39" data-name="Path 39" d="M517.035,1107.191l.806-2.484,30.212,29.948-30.237,29.95-.781-2.324Z"/>
      <path id="Path_40" data-name="Path 40" d="M522.316,1100.128a29.38,29.38,0,0,1,3.9-.53c7.583-.051,15.166-.025,22.749-.025q29.34,0,58.681,0a9.086,9.086,0,0,1,4.318.9c-1.509,1.478-2.938,2.848-4.336,4.249q-18.928,18.978-37.849,37.964c-1.769,1.773-3.7,1.779-5.455.018q-20.717-20.781-41.429-41.564c-.2-.2-.4-.418-.6-.628Z"/>
      <path id="Path_41" data-name="Path 41" d="M522.28,1168.959q15.042-14.895,30.146-29.848c.1.091.357.322.6.567q3.618,3.63,7.236,7.261a9.248,9.248,0,0,0,13.57-.015c2.653-2.636,5.306-5.273,7.823-7.776l30.328,30.039c-1.184.258-2.176.5-3.179.681a7.119,7.119,0,0,1-1.266.031q-40.512,0-81.023-.022a34.426,34.426,0,0,1-4.193-.5Z"/>
      <path id="Path_42" data-name="Path 42" d="M616.358,1104.735a18.6,18.6,0,0,1,.648,3.476q.065,26.5,0,53.007a19.75,19.75,0,0,1-.643,3.552l-30.3-30.045Z"/>
    </g>
  </g>
</svg>
