<svg xmlns="http://www.w3.org/2000/svg" width="219.469" height="219.357" viewBox="0 0 219.469 219.357">
  <g id="Group_15" data-name="Group 15" transform="translate(235.047 -1025.061)">
    <path id="Path_36" data-name="Path 36" d="M-16.573,1120.788c-7.35-53.15-49.85-92.21-103.72-95.33a32.276,32.276,0,0,0-10.1,0c-3.31.34-6.62.6-9.91,1.02-56.24,7.22-98.27,58.22-94.51,114.66,3.12,46.93,33.8,85.58,78.4,98.94,5.64,1.69,11.63,1.93,17.07,4.34h26c1.27-2,3.32-.86,4.96-1.11C-50.253,1234.588-8.523,1178.938-16.573,1120.788Zm-109.18,113.64c-54.79-.42-99.19-45.24-98.87-99.82.33-55.17,45.09-99.55,99.97-99.09s99.39,45.23,99.12,99.7C-25.813,1190-71.123,1234.848-125.753,1234.428Z"/>
    <path id="Path_37" data-name="Path 37" d="M-122.879,1087.089c1.889.312,3.8.531,5.665.95A36.046,36.046,0,0,1-90.1,1116.863c1.361,8.22-.109,16.034-3.106,23.65-3.563,9.053-8.827,17.1-14.844,24.677a143.055,143.055,0,0,1-14.7,15.9c-1.855,1.723-3.248,1.733-5.092-.005-9.985-9.409-18.761-19.792-25.429-31.845a61.175,61.175,0,0,1-7.308-20.252,36.032,36.032,0,0,1,29.2-41.358c1.216-.21,2.442-.364,3.663-.544Zm17.426,35.154c-.472-11.053-9.608-19.7-20.373-19.274a19.907,19.907,0,0,0-19.319,20.421c.439,11.017,9.637,19.719,20.374,19.276C-113.675,1142.208-104.991,1133.028-105.453,1122.243Z"/>
  </g>
</svg>
