<svg xmlns="http://www.w3.org/2000/svg" width="219.469" height="219.357" viewBox="0 0 219.469 219.357">
  <g id="Group_14" data-name="Group 14" transform="translate(-95.236 -1025.061)">
    <path id="Path_34" data-name="Path 34" d="M313.71,1120.788c-7.35-53.15-49.85-92.21-103.72-95.33a32.276,32.276,0,0,0-10.1,0c-3.31.34-6.62.6-9.91,1.02-56.24,7.22-98.27,58.22-94.51,114.66,3.12,46.93,33.8,85.58,78.4,98.94,5.64,1.69,11.63,1.93,17.07,4.34h26c1.27-2,3.32-.86,4.96-1.11C280.03,1234.588,321.76,1178.938,313.71,1120.788Zm-109.18,113.64c-54.79-.42-99.19-45.24-98.87-99.82.33-55.17,45.09-99.55,99.97-99.09s99.39,45.23,99.12,99.7C304.47,1190,259.16,1234.848,204.53,1234.428Z"/>
    <path id="Path_35" data-name="Path 35" d="M179.677,1091.593a10.461,10.461,0,0,1,4.72,2.049c.193.163.4.316.573.494,3.875,3.87,7.766,7.725,11.613,11.622a8.119,8.119,0,0,1,1.343,10.186,7.234,7.234,0,0,1-3.832,3.133,8.474,8.474,0,0,0-5.236,4.676,7.19,7.19,0,0,0-.332,4.849,28.423,28.423,0,0,0,6.438,11.309,39.058,39.058,0,0,0,12.243,9.737c2,.979,4.058,1.834,6.368,1.512a7.737,7.737,0,0,0,6.583-4.825,8.934,8.934,0,0,1,3.6-4.714,7.947,7.947,0,0,1,9.406.817c2.364,2.154,4.581,4.472,6.843,6.737,2.063,2.066,4.2,4.071,6.121,6.263a8.293,8.293,0,0,1,.355,10.087,14.307,14.307,0,0,1-1.46,1.734c-2.269,2.3-4.611,4.526-6.831,6.871a12.049,12.049,0,0,1-8.646,3.736,28.539,28.539,0,0,1-10.39-1.785,70.239,70.239,0,0,1-18.262-9.769,118.656,118.656,0,0,1-24.686-23.746c-5.215-6.7-9.681-13.842-12.439-21.935a29.088,29.088,0,0,1-1.821-10.891,11.95,11.95,0,0,1,3.7-8.488c2.061-1.947,4.063-3.961,6.019-6.014,1.722-1.808,3.586-3.3,6.156-3.645Z"/>
  </g>
</svg>
