<svg xmlns="http://www.w3.org/2000/svg" width="3215.745" height="2456.114" viewBox="0 0 3215.745 2456.114">
  <g id="Group_10" data-name="Group 10" transform="translate(1218.463 -362.936) rotate(17)">
    <path id="Path_27" data-name="Path 27" d="M1899.5,515.24S1402.992,387.4,1047.487,789.513,224.772,1039.241-105.954,1307.124-481.537,2024.771,42.4,2181.6s734.114-357.148,1190.289-300.975,771.345-32.125,936.388-344.167S2321.045,619.554,1899.5,515.24Z" transform="translate(-27.293 0)" fill="#30b7b0" opacity="0.15"/>
    <path id="Path_28" data-name="Path 28" d="M-219.469,828.3S78.394,450.823,473.174,657.529s663.251-179.506,991.451-89.827,524.733,501.283,218.491,920.782-641.205,30.409-937.405,318S198.154,2169.959-31.21,1952.876-473.9,1144.695-219.469,828.3Z" transform="translate(-191.725 367.203)" fill="#30b7b0" opacity="0.15"/>
  </g>
</svg>
