<svg xmlns="http://www.w3.org/2000/svg" width="219.469" height="219.357" viewBox="0 0 219.469 219.357">
  <g id="Group_18" data-name="Group 18" transform="translate(-67.675 -1019.1)">
    <path id="Path_43" data-name="Path 43" d="M286.149,1114.827c-7.35-53.15-49.85-92.21-103.72-95.33a32.276,32.276,0,0,0-10.1,0c-3.31.34-6.62.6-9.91,1.02-56.24,7.22-98.27,58.22-94.51,114.66,3.12,46.93,33.8,85.58,78.4,98.94,5.64,1.69,11.63,1.93,17.07,4.34h26c1.27-2,3.32-.86,4.96-1.11C252.469,1228.627,294.2,1172.977,286.149,1114.827Zm-109.18,113.64c-54.79-.42-99.19-45.24-98.87-99.82.33-55.17,45.09-99.55,99.97-99.09s99.39,45.23,99.12,99.7C276.909,1184.037,231.6,1228.887,176.969,1228.467Z" fill="#fee300"/>
    <path id="Path_44" data-name="Path 44" d="M232.021,1155.585v2.129c-.458,2.272-2.065,3.426-4.072,4.2a41.114,41.114,0,0,1-7.554,2.149,3.2,3.2,0,0,0-2.89,2.617c-1.141,4.3-2.855,5.295-7.34,4.5a22.656,22.656,0,0,0-7.59-.484,19.6,19.6,0,0,0-8.44,3.781c-3.631,2.612-7.332,5.112-11.892,5.887a23.8,23.8,0,0,1-16.992-2.938,37.047,37.047,0,0,1-4.06-2.724,17.622,17.622,0,0,0-15.754-3.652,11.348,11.348,0,0,1-2.1.3c-3.608.131-4.759-.58-5.62-4.079a3.826,3.826,0,0,0-3.5-3.321,29.447,29.447,0,0,1-8.109-2.469c-2.165-1.066-3.458-2.622-3.3-5.175a3.071,3.071,0,0,1,2.52-3.22c8.9-1.924,14.8-7.654,19.287-15.17,2.841-4.762,2.267-6.315-2.906-8.12a25.229,25.229,0,0,1-5.081-2.147c-2.876-1.777-4.012-4.356-2.992-6.741,1.072-2.509,4.708-4.128,7.573-3.331,1.159.323,2.263.834,3.439,1.106,2.056.474,2.5-.035,2.392-2.108a96.4,96.4,0,0,1,.16-16.767,23.364,23.364,0,0,1,5.461-11.823c6.1-7.53,14.185-10.991,23.8-11.21,6.6-.151,12.93.888,18.479,4.594,8.324,5.56,13.5,13.049,13.27,23.5-.091,4.107.281,8.222-.271,12.322-.157,1.164.4,1.709,1.652,1.495a27.29,27.29,0,0,0,3.451-1.056,7.145,7.145,0,0,1,6.642,1.2,4.627,4.627,0,0,1,.819,7.071,10.325,10.325,0,0,1-4.368,2.929,52.3,52.3,0,0,0-4.981,1.846c-2.47,1.243-2.933,2.4-1.843,4.975a32.535,32.535,0,0,0,5.439,8.34,26.192,26.192,0,0,0,14.376,8.932A3.343,3.343,0,0,1,232.021,1155.585Z" fill="#fee300"/>
  </g>
</svg>
