<svg xmlns="http://www.w3.org/2000/svg" width="82.681" height="82.681" viewBox="0 0 82.681 82.681"><g transform="translate(2477.326 -1290.284)"><g transform="translate(-2476.826 1290.784)"><circle cx="40.84" cy="40.84" r="40.84" fill="none" stroke="#707070" stroke-miterlimit="10" stroke-width="1"/><path d="M211.364,229.079a18.051,18.051,0,0,0,10.527,3.366V224.9a10.6,10.6,0,0,1-2.211-.232v5.944a18.051,18.051,0,0,1-10.527-3.366v15.406a13.966,13.966,0,0,1-21.733,11.594,13.963,13.963,0,0,0,23.944-9.757V229.079Zm2.728-7.617a10.514,10.514,0,0,1-2.728-6.16v-.971h-2.094a10.569,10.569,0,0,0,4.823,7.131ZM192.3,248.328a6.388,6.388,0,0,1,7.022-9.948V230.66a14.077,14.077,0,0,0-2.211-.125v6.008a6.384,6.384,0,0,0-4.811,11.785Z" transform="translate(-161.971 -194.62)" fill="#ff1753" fill-rule="evenodd"/><path d="M211.386,227.242a18.051,18.051,0,0,0,10.527,3.366v-5.944A16.66,16.66,0,0,1,211.5,214.331H206v30.154a6.388,6.388,0,0,1-11.471,3.843,6.385,6.385,0,0,1,4.811-11.785v-6.008a13.952,13.952,0,0,0-9.688,23.707,13.966,13.966,0,0,0,21.733-11.594Z" transform="translate(-164.204 -194.62)" fill="#fff" fill-rule="evenodd"/><path d="M223.154,225.7v-1.607a10.506,10.506,0,0,1-5.588-1.6A10.537,10.537,0,0,0,223.154,225.7Zm-10.411-10.333c-.05-.287-.089-.577-.116-.866v-.971h-7.6v30.154a6.389,6.389,0,0,1-9.26,5.679,6.388,6.388,0,0,0,11.471-3.843V215.362Zm-12.161,16.2v-1.712a14.165,14.165,0,0,0-1.914-.13,13.954,13.954,0,0,0-7.774,25.548,13.952,13.952,0,0,1,9.688-23.707Z" transform="translate(-165.445 -195.651)" fill="#00c9d0" fill-rule="evenodd"/></g></g></svg>