<svg xmlns="http://www.w3.org/2000/svg" width="82.681" height="82.681" viewBox="0 0 82.681 82.681"><g transform="translate(2477.326 -1778.192)"><g transform="translate(-2476.826 1778.692)"><g transform="translate(0 0)"><circle cx="40.84" cy="40.84" r="40.84" fill="none" stroke="red" stroke-miterlimit="10" stroke-width="1"/><path d="M225.139,440.3a8.7,8.7,0,0,0-8.7-8.706h-22.26a8.705,8.705,0,0,0-8.706,8.706v10.358a8.705,8.705,0,0,0,8.706,8.706h22.26a8.7,8.7,0,0,0,8.7-8.706Zm-13.091,5.955-9.982,4.939c-.39.212-1.721-.073-1.721-.517V440.537c0-.451,1.342-.734,1.732-.51l9.556,5.2C212.035,445.453,212.454,446.034,212.048,446.253Z" transform="translate(-164.465 -404.636)" fill="red"/></g></g></g></svg>