<svg xmlns="http://www.w3.org/2000/svg" xmlns:xlink="http://www.w3.org/1999/xlink" width="82.681" height="82.681" viewBox="0 0 82.681 82.681"><defs><linearGradient id="a" y1="0.5" x2="1" y2="0.5" gradientUnits="objectBoundingBox"><stop offset="0.001" stop-color="#ffe185"/><stop offset="0.209" stop-color="#ffbb36"/><stop offset="0.376" stop-color="#ff5176"/><stop offset="0.524" stop-color="#f63395"/><stop offset="0.739" stop-color="#a436d2"/><stop offset="1" stop-color="#5f4eed"/></linearGradient></defs><g transform="translate(2477.5 -1049.774)"><g transform="translate(-2477 1050.274)"><circle cx="40.84" cy="40.84" r="40.84" fill="none" stroke="#707070" stroke-miterlimit="10" stroke-width="1"/><g transform="translate(19.586 19.588)"><path d="M200.432,112.077a2.492,2.492,0,1,0,2.493,2.491A2.491,2.491,0,0,0,200.432,112.077Z" transform="translate(-167.926 -104.488)" fill="#fff" stroke="#707070" stroke-miterlimit="10" stroke-width="1"/><path d="M200.048,113.479a10.468,10.468,0,1,0,10.468,10.468A10.48,10.48,0,0,0,200.048,113.479Zm0,17.173a6.705,6.705,0,1,1,6.705-6.7A6.713,6.713,0,0,1,200.048,130.652Z" transform="translate(-178.62 -102.694)" fill="url(#a)"/><path d="M214.511,151.252H197.538a12.782,12.782,0,0,1-12.767-12.767v-16.97a12.782,12.782,0,0,1,12.767-12.767h16.972a12.782,12.782,0,0,1,12.767,12.767v16.97A12.782,12.782,0,0,1,214.511,151.252Zm-16.972-38.507a8.779,8.779,0,0,0-8.768,8.77v16.97a8.779,8.779,0,0,0,8.768,8.77h16.972a8.779,8.779,0,0,0,8.768-8.77v-16.97a8.779,8.779,0,0,0-8.768-8.77Z" transform="translate(-184.771 -108.747)" fill="url(#a)"/></g></g></g></svg>