<svg xmlns="http://www.w3.org/2000/svg" width="82.681" height="82.681" viewBox="0 0 82.681 82.681"><g transform="translate(2476.424 -1533.853)"><g transform="translate(-2475.924 1534.353)"><g transform="translate(0 0)"><circle cx="40.84" cy="40.84" r="40.84" fill="none" stroke="#00de51" stroke-miterlimit="10" stroke-width="1"/><g transform="translate(19.811 19.761)"><path d="M185.342,363.385l3.022-11.279a20.873,20.873,0,1,1,8.314,8.241Zm11.9-7.263.713.426a16.953,16.953,0,1,0-5.8-5.746l.438.72-1.686,6.295Z" transform="translate(-185.342 -321.225)" fill="#00de51"/><path d="M208.057,338.6c-.857-.513-1.971-1.085-2.983-.672-.773.317-1.267,1.529-1.771,2.149a.743.743,0,0,1-.96.21,13.526,13.526,0,0,1-6.741-5.775.826.826,0,0,1,.1-1.128,4.547,4.547,0,0,0,1.224-1.99,4.324,4.324,0,0,0-.547-2.352c-.406-.875-.859-2.124-1.737-2.619a2.376,2.376,0,0,0-2.584.385,5.243,5.243,0,0,0-1.821,4.157,6.115,6.115,0,0,0,.164,1.32,10.977,10.977,0,0,0,1.267,2.917,22.9,22.9,0,0,0,1.32,2.008,20.418,20.418,0,0,0,5.732,5.322,17.3,17.3,0,0,0,3.574,1.7,7.939,7.939,0,0,0,4.159.656,5.041,5.041,0,0,0,3.774-2.806,2.44,2.44,0,0,0,.173-1.431C210.19,339.661,208.854,339.073,208.057,338.6Z" transform="translate(-179.076 -314.879)" fill="none" stroke="#00de51" stroke-miterlimit="10" stroke-width="1" fill-rule="evenodd"/></g></g></g></g></svg>